<svg class="icon wogg-benefit-svg" xmlns="http://www.w3.org/2000/svg" width="80" height="80" viewBox="0 0 80 80" fill="none"><path d="M33.2445 4.46179C35.7868 10.8262 30.4712 19.644 26.0268 25.9729C19.6268 35.0929 20.1779 40.764 21.0312 49.3507C21.0668 49.7773 21.1201 50.2218 21.1556 50.6662C18.5423 48.0707 16.9956 44.0707 16.7468 39.164C16.4801 33.8307 17.849 28.1418 20.3556 24.3018C21.7601 22.1507 23.4312 20.0885 25.049 18.0973C28.3556 14.0085 31.7512 9.83068 33.2445 4.46179ZM45.4223 1.77734C48.7823 5.42179 50.1334 10.9329 49.4401 18.2218C48.7645 25.404 46.3112 32.7996 44.2668 38.4529C38.4179 54.4885 41.4934 62.6662 46.169 75.0751C46.5601 76.1062 46.9512 77.1551 47.3423 78.2396C41.7245 75.5551 37.2801 69.8307 34.7023 61.884C32.1245 53.9373 31.9112 44.7285 34.1334 37.884C35.3601 34.0796 37.049 30.3107 38.6845 26.6662C42.169 18.8973 45.7423 10.8796 45.4223 1.77734ZM61.2267 25.9551C65.3156 31.4307 62.4712 41.3329 59.8223 48.604C56.0001 59.0751 58.009 64.4085 61.049 72.4796C61.209 72.8885 61.3512 73.2973 61.5112 73.7062C58.329 71.8751 55.8045 68.4085 54.2756 63.7329C52.6401 58.6662 52.4979 52.7996 53.9023 48.444C54.7023 46.0085 55.7868 43.5729 56.8356 41.2262C58.969 36.444 61.1734 31.5196 61.2267 25.9551Z" fill="black"></path></svg>
