<svg class="icon wogg-benefit-svg" xmlns="http://www.w3.org/2000/svg" width="80" height="80" viewBox="0 0 80 80" fill="none"><g clip-path="url(#clip0_31_200)"><path d="M76.8871 44.7059L69.2362 25.5787C71.0466 25.1298 72.7003 24.196 74.0197 22.8777C75.3391 21.5594 76.2743 19.9064 76.7247 18.0965L72.1595 16.9553C71.8593 18.1617 71.1638 19.2329 70.1838 19.9979C69.2039 20.763 67.996 21.1779 66.7528 21.1765H63.0654C62.1478 21.1775 61.2441 20.9514 60.4351 20.5184C59.626 20.0854 58.9366 19.459 58.4284 18.6949C57.4911 17.2856 56.2196 16.1301 54.7273 15.3315C53.235 14.5328 51.5683 14.1158 49.8758 14.1176H47.891C47.0988 11.4659 45.0047 9.37177 42.3529 8.57961V0H37.6471V8.57961C34.9953 9.37177 32.9012 11.4659 32.109 14.1176H30.1242C28.4317 14.1158 26.765 14.5328 25.2728 15.3315C23.7805 16.1301 22.5091 17.2856 21.5718 18.6949C21.0635 19.459 20.3742 20.0854 19.5651 20.5184C18.756 20.9514 17.8524 21.1775 16.9347 21.1765H13.2472C12.004 21.1779 10.7961 20.7629 9.81622 19.9978C8.83631 19.2327 8.1408 18.1616 7.84063 16.9551L3.27529 18.0965C3.72578 19.9064 4.66098 21.5593 5.98038 22.8776C7.29977 24.1959 8.95348 25.1297 10.7638 25.5787L3.11278 44.7059H0V47.0588C0 54.8433 6.33318 61.1765 14.1176 61.1765C21.9021 61.1765 28.2353 54.8433 28.2353 47.0588V44.7059H25.1225L17.5849 25.862C20.7785 25.6613 23.6973 23.9901 25.4872 21.3053C25.9954 20.5412 26.6848 19.9148 27.4938 19.4818C28.3028 19.0488 29.2065 18.8227 30.1241 18.8237H32.1089C32.901 21.4755 34.9951 23.5696 37.6469 24.3617V68.2353H21.1765V75.2941H16.4706V80H63.5294V75.2941H58.8235V68.2353H42.3529V24.3616C45.0047 23.5694 47.0988 21.4753 47.891 18.8235H49.8758C50.7934 18.8225 51.6971 19.0486 52.5061 19.4816C53.3152 19.9146 54.0046 20.541 54.5128 21.3051C56.3027 23.99 59.2215 25.6612 62.4152 25.8618L54.8776 44.7059H51.7647V47.0588C51.7647 54.8433 58.0979 61.1765 65.8824 61.1765C73.6668 61.1765 80 54.8433 80 47.0588V44.7059H76.8871ZM20.054 44.7059H8.18133L14.1176 29.8649L20.054 44.7059ZM59.9459 44.7059L65.8824 29.8648L71.8188 44.7059H59.9459Z" fill="black"></path></g><defs><clipPath id="clip0_31_200"><rect width="80" height="80" fill="white"></rect></clipPath></defs></svg>
